<?xml version="1.0" standalone="no"?>
<!DOCTYPE svg PUBLIC "-//W3C//DTD SVG 20010904//EN"
 "http://www.w3.org/TR/2001/REC-SVG-20010904/DTD/svg10.dtd">
<svg version="1.0" xmlns="http://www.w3.org/2000/svg"
 width="303.000000pt" height="327.000000pt" viewBox="0 0 303.000000 327.000000"
 preserveAspectRatio="xMidYMid meet">

<g transform="translate(0.000000,327.000000) scale(0.100000,-0.100000)"
fill="#000000" stroke="none">
<path d="M1409 2770 c-446 -43 -806 -292 -1009 -698 -53 -108 -105 -263 -125
-377 -18 -105 -21 -350 -5 -452 78 -493 343 -834 759 -974 116 -40 220 -58
396 -70 846 -57 1389 394 1422 1179 4 82 1 167 -7 225 -25 184 -110 426 -203
572 -77 122 -209 264 -327 352 -173 130 -422 220 -665 243 -119 11 -123 11
-236 0z m327 -145 c359 -62 652 -269 826 -586 116 -209 178 -521 149 -744 -46
-345 -170 -582 -394 -751 -78 -58 -239 -137 -337 -164 -185 -51 -485 -66 -698
-34 -481 71 -786 379 -872 882 -93 536 154 1067 600 1292 210 106 487 146 726
105z"/>
<path d="M1058 2110 c-28 -15 -40 -31 -53 -67 -10 -27 -22 -61 -27 -76 -6 -15
-36 -47 -67 -70 -68 -52 -121 -127 -121 -171 0 -94 59 -187 127 -200 115 -22
188 -14 277 31 69 35 151 116 182 180 23 46 27 66 27 146 -1 131 -30 188 -117
228 -57 26 -177 25 -228 -1z m188 -241 c38 -35 30 -80 -17 -104 -66 -35 -139
-2 -139 61 0 68 100 96 156 43z"/>
<path d="M1885 2117 c-95 -37 -129 -99 -129 -232 -1 -79 3 -98 27 -148 74
-150 253 -244 415 -218 34 5 76 20 92 31 58 41 93 146 71 213 -12 35 -52 81
-143 163 -35 31 -47 50 -53 82 -8 48 -35 86 -75 107 -35 18 -161 19 -205 2z
m153 -252 c29 -34 28 -51 -7 -86 -36 -35 -86 -39 -124 -9 -35 28 -42 56 -22
86 33 51 112 55 153 9z"/>
<path d="M1520 1741 c-35 -11 -92 -40 -112 -59 -28 -24 -23 -68 10 -89 15 -10
45 -37 68 -60 32 -34 47 -43 75 -43 46 0 96 32 113 72 18 45 37 99 43 125 11
48 -109 80 -197 54z"/>
<path d="M2001 1457 c-3 -36 -59 -144 -86 -165 -34 -27 -77 -38 -175 -47 -44
-4 -107 -19 -152 -36 -87 -33 -143 -36 -209 -14 -52 18 -119 81 -148 140 -19
37 -20 38 -16 10 5 -28 2 -32 -54 -58 -60 -28 -156 -113 -221 -197 -19 -25 12
2 70 60 74 74 121 113 158 130 l52 24 30 -35 c16 -19 29 -37 30 -41 0 -3 -27
-20 -60 -36 -32 -17 -87 -52 -121 -78 -62 -49 -187 -192 -223 -256 -23 -40
-16 -33 58 59 103 129 230 235 330 277 35 15 40 15 67 -1 21 -13 29 -26 30
-48 2 -30 2 -30 6 -2 4 24 8 26 31 21 36 -9 36 -9 16 -39 -9 -14 -23 -24 -30
-21 -8 3 -14 1 -14 -4 0 -20 30 -9 51 19 17 24 32 31 73 36 28 4 84 20 124 36
42 16 92 29 117 29 24 0 67 5 95 11 47 10 52 9 81 -15 17 -14 36 -26 42 -26 6
0 -6 12 -27 26 l-39 27 24 18 c13 9 27 15 31 13 4 -3 8 2 8 10 0 9 4 16 9 16
13 0 241 -79 266 -92 18 -10 19 -10 6 5 -18 22 -121 70 -193 91 -32 9 -58 19
-58 22 0 2 7 21 15 41 14 33 17 35 48 29 81 -16 255 -132 243 -162 -9 -23 0
-16 19 14 10 15 12 22 5 15 -10 -9 -25 -1 -69 38 -57 50 -178 119 -212 119
-12 0 -19 9 -22 28 -2 15 -5 19 -6 9z"/>
<path d="M1611 1405 c0 -22 6 -53 14 -70 l13 -30 1 45 c0 25 -6 56 -14 70 -14
25 -14 25 -14 -15z"/>
<path d="M1951 1244 c0 -11 3 -14 6 -6 3 7 2 16 -1 19 -3 4 -6 -2 -5 -13z"/>
<path d="M2437 1230 c10 -13 3 -30 -39 -93 -28 -42 -55 -77 -59 -77 -13 0
-109 61 -109 69 0 3 7 17 16 29 8 12 13 22 10 22 -2 0 -14 -13 -25 -29 l-21
-29 68 -41 c37 -22 69 -36 70 -31 5 15 21 12 52 -10 31 -22 30 -23 74 48 35
56 25 54 -14 -4 -29 -41 -55 -54 -55 -26 0 5 -4 14 -9 19 -5 5 -6 3 -2 -4 4
-7 3 -13 -3 -13 -20 0 -18 16 9 58 23 38 28 41 40 28 14 -18 40 -21 40 -5 0 5
6 7 13 3 6 -4 3 2 -7 14 -24 27 -26 27 -21 1 2 -12 0 -19 -7 -17 -15 5 -19 37
-8 59 7 12 5 21 -8 30 -15 12 -15 12 -5 -1z"/>
<path d="M2416 1065 c-3 -8 -1 -15 4 -15 6 0 10 7 10 15 0 8 -2 15 -4 15 -2 0
-6 -7 -10 -15z"/>
<path d="M889 1023 c-13 -16 -12 -17 4 -4 9 7 17 15 17 17 0 8 -8 3 -21 -13z"/>
<path d="M859 983 c-13 -16 -12 -17 4 -4 9 7 17 15 17 17 0 8 -8 3 -21 -13z"/>
<path d="M1270 964 c-19 -2 -54 -7 -77 -10 l-43 -5 0 -142 c0 -78 4 -147 8
-153 4 -6 26 -13 49 -16 42 -6 42 -6 45 29 3 31 8 37 42 48 100 35 159 157
104 219 -24 26 -66 36 -128 30z m34 -103 c10 -15 -3 -37 -30 -51 -30 -16 -33
-13 -27 28 4 25 10 32 29 32 12 0 25 -4 28 -9z"/>
<path d="M1634 956 c-40 -18 -82 -73 -99 -130 -48 -159 139 -258 288 -153 l29
20 -40 39 c-39 40 -39 40 -70 24 -55 -28 -92 -16 -92 32 0 57 35 80 83 56 l31
-17 33 38 c32 37 32 39 16 58 -40 44 -119 59 -179 33z"/>
<path d="M2055 956 c-50 -19 -74 -51 -75 -98 0 -46 21 -69 84 -93 26 -10 45
-23 43 -29 -5 -15 -53 -19 -87 -7 -29 9 -30 8 -42 -30 -14 -48 -8 -54 63 -64
124 -17 216 68 168 157 -12 23 -83 57 -117 58 -15 0 -22 5 -19 13 3 8 23 12
60 11 l55 -1 11 41 c5 22 9 41 7 43 -11 12 -118 11 -151 -1z"/>
</g>
</svg>
