<?xml version="1.0" standalone="no"?>
<!DOCTYPE svg PUBLIC "-//W3C//DTD SVG 20010904//EN"
 "http://www.w3.org/TR/2001/REC-SVG-20010904/DTD/svg10.dtd">
<svg version="1.0" xmlns="http://www.w3.org/2000/svg"
 width="303.000000pt" height="327.000000pt" viewBox="0 0 303.000000 327.000000"
 preserveAspectRatio="xMidYMid meet">

<g transform="translate(0.000000,327.000000) scale(0.100000,-0.100000)"
fill="#000000" stroke="none">
<path d="M1405 2768 c-434 -45 -782 -277 -980 -651 -116 -219 -166 -417 -166
-661 0 -526 247 -955 657 -1142 179 -81 368 -116 639 -116 327 0 566 61 784
202 271 175 441 459 495 823 65 436 -89 900 -395 1192 -273 259 -663 393
-1034 353z m374 -152 c392 -86 687 -333 840 -703 75 -183 109 -400 91 -587
-29 -304 -122 -521 -299 -697 -202 -200 -484 -299 -854 -299 -403 0 -676 99
-881 321 -102 109 -166 228 -224 409 -99 310 -75 665 64 942 176 351 438 551
819 622 101 19 339 15 444 -8z"/>
<path d="M1108 2131 c-70 -14 -118 -68 -118 -132 0 -14 -33 -53 -94 -113 -103
-100 -115 -124 -102 -210 14 -89 79 -150 173 -162 159 -20 342 78 412 221 21
42 25 65 25 145 1 159 -47 226 -178 249 -65 12 -64 12 -118 2z m140 -267 c30
-34 28 -57 -9 -88 -37 -31 -73 -33 -116 -6 -50 30 -44 92 11 116 40 18 85 9
114 -22z"/>
<path d="M1929 2130 c-80 -14 -118 -41 -155 -110 -15 -27 -19 -57 -19 -135 0
-85 4 -107 25 -150 69 -144 251 -241 413 -221 63 8 111 36 144 84 24 36 39
126 28 163 -12 37 -55 89 -110 132 -60 48 -81 77 -89 127 -8 50 -52 94 -110
109 -49 12 -60 12 -127 1z m99 -256 c28 -18 30 -73 4 -97 -62 -57 -180 -5
-152 67 19 51 93 66 148 30z"/>
<path d="M1486 1730 c-94 -37 -125 -99 -70 -137 14 -10 45 -37 69 -60 36 -36
49 -43 84 -43 54 0 106 44 119 103 6 23 16 57 24 75 12 32 12 35 -15 58 -24
20 -38 24 -95 24 -41 -1 -86 -8 -116 -20z"/>
<path d="M2001 1463 c-1 -29 -47 -132 -69 -156 -27 -31 -82 -48 -179 -57 -62
-6 -113 -18 -155 -36 -83 -36 -184 -39 -244 -7 -48 26 -99 81 -126 137 -18 39
-19 39 -14 9 5 -30 2 -32 -52 -59 -92 -45 -253 -222 -377 -416 -34 -54 -7 -27
35 35 118 170 258 320 338 361 60 30 67 29 95 -13 l26 -40 -52 -24 c-109 -50
-214 -147 -324 -297 -37 -51 -75 -113 -59 -99 4 4 25 31 47 60 113 152 238
265 353 320 l59 28 29 -20 c17 -13 28 -29 28 -44 0 -60 27 -72 61 -26 16 22
31 30 69 34 27 3 77 17 112 31 36 15 103 30 157 36 51 6 98 13 103 16 5 3 27
-7 49 -22 51 -35 65 -24 49 36 -6 23 -10 44 -7 46 5 5 225 -69 265 -90 38 -19
38 -20 12 -56 l-20 -28 65 -41 64 -41 36 21 c25 15 35 17 33 8 -2 -8 5 -13 16
-12 13 1 15 -2 7 -10 -7 -7 -15 -6 -26 3 -8 7 -18 11 -21 8 -2 -3 7 -13 22
-22 14 -10 27 -16 28 -14 1 2 19 29 39 61 l38 58 -30 24 c-16 14 -28 32 -27
40 0 9 -21 32 -49 51 -27 20 -40 27 -27 15 13 -11 34 -28 48 -38 l24 -18 -46
-65 c-25 -36 -49 -71 -53 -79 -7 -11 -19 -8 -65 18 -31 18 -56 35 -56 37 0 3
17 31 38 62 54 81 59 90 41 75 -13 -10 -21 -6 -50 23 -47 49 -130 102 -192
124 -43 15 -53 24 -58 47 -5 23 -7 24 -8 6z m130 -103 c57 -29 159 -105 159
-118 0 -4 -7 -15 -14 -25 -12 -16 -17 -15 -72 18 -33 20 -96 47 -141 61 -49
16 -80 31 -78 37 25 70 24 69 58 62 17 -4 57 -20 88 -35z m-181 -133 l0 -28
-30 23 -31 22 23 17 c26 20 38 10 38 -34z m522 -64 c23 -21 22 -32 -6 -67 -23
-27 -24 -28 -49 -11 -25 16 -25 18 -10 41 18 28 26 30 43 9 9 -11 16 -13 23
-6 14 14 -11 44 -30 37 -8 -3 -11 -1 -8 4 9 14 16 13 37 -7z m-1042 -12 c0 -4
-11 -18 -24 -30 -21 -19 -24 -20 -30 -6 -14 38 -7 52 24 47 17 -2 30 -7 30
-11z"/>
<path d="M1610 1402 c0 -21 5 -54 11 -72 18 -51 32 -14 18 49 -13 63 -29 75
-29 23z"/>
<path d="M2325 1290 c-3 -6 1 -7 9 -4 18 7 21 14 7 14 -6 0 -13 -4 -16 -10z"/>
<path d="M1265 964 c-16 -2 -49 -7 -72 -10 l-43 -5 0 -154 0 -153 48 -4 c51
-4 62 3 62 43 0 21 6 28 29 32 38 8 100 63 117 104 33 77 1 142 -71 148 -22 1
-53 1 -70 -1z m40 -105 c7 -11 -31 -59 -47 -59 -4 0 -8 16 -8 35 0 30 3 35 24
35 14 0 28 -5 31 -11z"/>
<path d="M1635 958 c-64 -35 -107 -107 -108 -180 -1 -54 19 -89 73 -125 57
-39 177 -26 232 24 18 16 17 19 -23 59 l-42 43 -25 -20 c-45 -35 -92 -20 -92
31 0 48 47 73 92 49 17 -9 25 -6 54 22 19 18 34 39 34 46 0 6 -20 24 -43 38
-47 27 -116 33 -152 13z"/>
<path d="M2065 963 c-62 -17 -105 -85 -86 -134 12 -32 32 -48 78 -64 21 -7 38
-19 38 -27 0 -17 -39 -22 -75 -10 -26 10 -29 8 -38 -16 -6 -15 -13 -34 -17
-43 -5 -13 4 -19 39 -28 56 -14 80 -14 130 0 58 16 86 49 86 102 0 53 -24 79
-91 99 -26 7 -48 18 -50 23 -5 14 47 18 81 7 27 -10 28 -9 39 35 7 25 10 48 7
50 -7 8 -119 12 -141 6z"/>
</g>
</svg>
